HIERARCHY
ROOT hip
{
  OFFSET 0 0 0
  CHANNELS 6 Xposition Yposition Zposition Zrotation Yrotation Xrotation
  JOINT abdomen
  {
    OFFSET 0 20.6881 -0.73152
    CHANNELS 3 Zrotation Xrotation Yrotation
    JOINT chest
    {
      OFFSET 0 11.7043 -0.48768
      CHANNELS 3 Zrotation Xrotation Yrotation
      JOINT neck
      {
        OFFSET 0 22.1894 -2.19456
        CHANNELS 3 Zrotation Xrotation Yrotation
        JOINT head
        {
          OFFSET -0.24384 7.07133 1.2192
          CHANNELS 3 Zrotation Xrotation Yrotation
          JOINT leftEye
          {
            OFFSET 4.14528 8.04674 8.04672
            CHANNELS 3 Zrotation Xrotation Yrotation
            End Site
            {
              OFFSET 1 0 0
            }
          }
          JOINT rightEye
          {
            OFFSET -3.6576 8.04674 8.04672
            CHANNELS 3 Zrotation Xrotation Yrotation
            End Site
            {
              OFFSET 1 0 0
            }
          }
        }
      }
      JOINT rCollar
      {
        OFFSET -2.68224 19.2634 -4.8768
        CHANNELS 3 Zrotation Xrotation Yrotation
        JOINT rShldr
        {
          OFFSET -8.77824 -1.95073 1.46304
          CHANNELS 3 Zrotation Xrotation Yrotation
          JOINT rForeArm
          {
            OFFSET -28.1742 -1.7115 0.48768
            CHANNELS 3 Zrotation Xrotation Yrotation
            JOINT rHand
            {
              OFFSET -22.5879 0.773209 7.07136
              CHANNELS 3 Zrotation Xrotation Yrotation
              JOINT rThumb1
              {
                OFFSET -1.2192 -0.487915 3.41376
                CHANNELS 3 Zrotation Xrotation Yrotation
                JOINT rThumb2
                {
                  OFFSET -3.37035 -0.52449 3.41376
                  CHANNELS 3 Zrotation Xrotation Yrotation
                  End Site
                  {
                    OFFSET -1.78271 -1.18214 1.43049
                  }
                }
              }
              JOINT rIndex1
              {
                OFFSET -7.75947 0.938293 5.60832
                CHANNELS 3 Zrotation Xrotation Yrotation
                JOINT rIndex2
                {
                  OFFSET -2.54057 -0.884171 1.56538
                  CHANNELS 3 Zrotation Xrotation Yrotation
                  End Site
                  {
                    OFFSET -1.62519 -0.234802 1.16502
                  }
                }
              }
              JOINT rMid1
              {
                OFFSET -8.24714 1.18213 3.41376
                CHANNELS 3 Zrotation Xrotation Yrotation
                JOINT rMid2
                {
                  OFFSET -3.10165 -0.590103 1.0647
                  CHANNELS 3 Zrotation Xrotation Yrotation
                  End Site
                  {
                    OFFSET -2.48547 -0.328903 0.83742
                  }
                }
              }
              JOINT rRing1
              {
                OFFSET -8.82822 0.546677 1.51678
                CHANNELS 3 Zrotation Xrotation Yrotation
                JOINT rRing2
                {
                  OFFSET -2.60934 -0.819778 -0.0198488
                  CHANNELS 3 Zrotation Xrotation Yrotation
                  End Site
                  {
                    OFFSET -2.33842 -0.294052 0.168128
                  }
                }
              }
              JOINT rPinky1
              {
                OFFSET -8.27202 -0.0477905 -0.4584
                CHANNELS 3 Zrotation Xrotation Yrotation
                JOINT rPinky2
                {
                  OFFSET -1.82734 -0.647385 -0.700984
                  CHANNELS 3 Zrotation Xrotation Yrotation
                  End Site
                  {
                    OFFSET -1.69225 -0.51767 -0.607171
                  }
                }
              }
            }
          }
        }
      }
      JOINT lCollar
      {
        OFFSET 2.68224 19.2634 -4.8768
        CHANNELS 3 Zrotation Xrotation Yrotation
        JOINT lShldr
        {
          OFFSET 8.77824 -1.95073 1.46304
          CHANNELS 3 Zrotation Xrotation Yrotation
          JOINT lForeArm
          {
            OFFSET 28.1742 -1.7115 0.48768
            CHANNELS 3 Zrotation Xrotation Yrotation
            JOINT lHand
            {
              OFFSET 22.5879 0.773209 7.07136
              CHANNELS 3 Zrotation Xrotation Yrotation
              JOINT lThumb1
              {
                OFFSET 1.2192 -0.487915 3.41376
                CHANNELS 3 Zrotation Xrotation Yrotation
                JOINT lThumb2
                {
                  OFFSET 3.37035 -0.52449 3.41376
                  CHANNELS 3 Zrotation Xrotation Yrotation
                  End Site
                  {
                    OFFSET 1.78271 -1.18214 1.43049
                  }
                }
              }
              JOINT lIndex1
              {
                OFFSET 7.75947 0.938293 5.60832
                CHANNELS 3 Zrotation Xrotation Yrotation
                JOINT lIndex2
                {
                  OFFSET 2.54057 -0.884171 1.56538
                  CHANNELS 3 Zrotation Xrotation Yrotation
                  End Site
                  {
                    OFFSET 1.62519 -0.234802 1.16502
                  }
                }
              }
              JOINT lMid1
              {
                OFFSET 8.24714 1.18213 3.41376
                CHANNELS 3 Zrotation Xrotation Yrotation
                JOINT lMid2
                {
                  OFFSET 3.10165 -0.590103 1.0647
                  CHANNELS 3 Zrotation Xrotation Yrotation
                  End Site
                  {
                    OFFSET 2.48547 -0.328903 0.83742
                  }
                }
              }
              JOINT lRing1
              {
                OFFSET 8.82822 0.546677 1.51678
                CHANNELS 3 Zrotation Xrotation Yrotation
                JOINT lRing2
                {
                  OFFSET 2.60934 -0.819778 -0.0198488
                  CHANNELS 3 Zrotation Xrotation Yrotation
                  End Site
                  {
                    OFFSET 2.33842 -0.294052 0.168128
                  }
                }
              }
              JOINT lPinky1
              {
                OFFSET 8.27202 -0.0477905 -0.4584
                CHANNELS 3 Zrotation Xrotation Yrotation
                JOINT lPinky2
                {
                  OFFSET 1.82734 -0.647385 -0.700984
                  CHANNELS 3 Zrotation Xrotation Yrotation
                  End Site
                  {
                    OFFSET 1.69225 -0.51767 -0.607171
                  }
                }
              }
            }
          }
        }
      }
    }
  }
  JOINT rButtock
  {
    OFFSET -8.77824 4.35084 1.2192
    CHANNELS 3 Zrotation Xrotation Yrotation
    JOINT rThigh
    {
      OFFSET 0 -1.70687 -2.19456
      CHANNELS 3 Zrotation Xrotation Yrotation
      JOINT rShin
      {
        OFFSET 0 -36.8199 0.73152
        CHANNELS 3 Zrotation Xrotation Yrotation
        JOINT rFoot
        {
          OFFSET 0.73152 -45.1104 -5.12064
          CHANNELS 3 Zrotation Xrotation Yrotation
          End Site
          {
            OFFSET -1.1221 -3.69964 12.103
          }
        }
      }
    }
  }
  JOINT lButtock
  {
    OFFSET 8.77824 4.35084 1.2192
    CHANNELS 3 Zrotation Xrotation Yrotation
    JOINT lThigh
    {
      OFFSET 0 -1.70687 -2.19456
      CHANNELS 3 Zrotation Xrotation Yrotation
      JOINT lShin
      {
        OFFSET 0 -36.8199 0.73152
        CHANNELS 3 Zrotation Xrotation Yrotation
        JOINT lFoot
        {
          OFFSET -0.73152 -45.1104 -5.12064
          CHANNELS 3 Zrotation Xrotation Yrotation
          End Site
          {
            OFFSET 1.1221 -3.69964 12.103
          }
        }
      }
    }
  }
}
MOTION
Frames:	4
Frame Time:	0.00833333
-37.0765 82.7364 -26.9399 -152.636 68.5582 -145.505 16.0517 -3.80916 3.09767 7.5834 -13.6127 2.21341 -6.01341 5.30792 -8.68996 0.951938 18.337 -13.2067 -0.0 0.0 0.0 -0.0 0.0 0.0 -3.67687e-14 9.22268e-13 -4.2553e-13 -7.17284 -13.1701 63.359 -19.4527 -12.3421 37.3565 -0.25117 14.6483 2.10012 1.13901e-09 -4.87725e-09 -5.34316e-10 1.95881e-09 -8.42656e-09 -9.26012e-10 1.13901e-09 -4.87725e-09 -5.34318e-10 7.73091 5.47488 0.417314 1.13901e-09 -4.87725e-09 -5.34314e-10 2.90554 0.965183 0.102902 1.13902e-09 -4.87725e-09 -5.34314e-10 10.2786 0.731801 0.0259123 1.13901e-09 -4.87725e-09 -5.34304e-10 2.22167 -0.733487 -0.20892 -3.6812e-14 9.22255e-13 -4.25747e-13 -58.9067 35.9491 -19.141 25.0018 -21.0888 -53.0479 0.0206104 4.12458 -0.580662 2.97682e-09 -2.98568e-09 1.53906e-09 5.15236e-09 -5.16752e-09 2.65935e-09 2.97682e-09 -2.98567e-09 1.53906e-09 -7.73091 5.47488 -0.417314 2.97683e-09 -2.98568e-09 1.53906e-09 -2.90554 0.965183 -0.102902 2.97682e-09 -2.98567e-09 1.53906e-09 -10.2786 0.731801 -0.0259123 2.97682e-09 -2.98568e-09 1.53906e-09 -2.22167 -0.733487 0.20892 -2.03217e-16 0.0 -3.88251e-19 31.8263 -19.7153 7.37762 -0.00818587 21.8445 0.448892 -8.38246 -28.1227 -24.4914 2.03217e-16 0.0 3.88251e-19 13.6886 -37.6842 -3.85356 0.765006 57.7193 -2.42214 0.956248 -1.06364 18.2338
-35.521 82.8732 -27.0265 -151.842 68.7048 -144.835 16.7334 -3.19651 3.45482 7.42206 -13.7362 2.25145 -6.16127 4.87247 -8.56093 0.682981 18.5301 -12.8652 -0.0 0.0 0.0 -0.0 0.0 0.0 -6.03432e-14 1.48632e-13 -7.49612e-14 -4.28379 -12.5608 64.8203 -19.2535 -12.1032 36.89 -0.35397 16.9577 2.45276 1.24146e-10 -3.38986e-09 -1.83693e-09 1.89706e-10 -5.84038e-09 -3.17049e-09 1.2415e-10 -3.38986e-09 -1.83694e-09 7.73091 5.47488 0.417314 1.24148e-10 -3.38986e-09 -1.83693e-09 2.90554 0.965183 0.102902 1.24157e-10 -3.38986e-09 -1.83693e-09 10.2786 0.731801 0.0259123 1.24146e-10 -3.38985e-09 -1.83692e-09 2.22167 -0.733487 -0.20892 -6.0384e-14 1.48625e-13 -7.51359e-14 -61.0403 35.8238 -16.4857 24.9034 -20.8788 -52.6992 0.0174325 3.78653 -0.532931 3.77408e-09 -3.83908e-09 -4.98934e-10 6.52538e-09 -6.6412e-09 -8.65906e-10 3.77407e-09 -3.83908e-09 -4.98929e-10 -7.73091 5.47488 -0.417314 3.77408e-09 -3.83908e-09 -4.98935e-10 -2.90554 0.965183 -0.102902 3.77407e-09 -3.83908e-09 -4.98931e-10 -10.2786 0.731801 -0.0259123 3.77407e-09 -3.83909e-09 -4.98932e-10 -2.22167 -0.733487 0.20892 -2.03217e-16 0.0 -3.88251e-19 32.5999 -18.2068 8.24177 0.0216965 21.5442 0.65819 -8.86182 -28.4323 -25.2919 2.03217e-16 0.0 3.88251e-19 13.0378 -39.1356 -4.14395 0.584741 54.823 -2.41569 1.75715 -4.49178 17.9148
-33.9523 83.0632 -27.138 -150.81 68.9699 -144.014 17.2367 -2.74518 3.81231 7.27732 -13.809 2.29739 -6.2971 4.50144 -8.42116 0.419645 18.715 -12.5013 -0.0 0.0 0.0 -0.0 0.0 0.0 -5.24625e-14 -3.08514e-13 1.59077e-13 -2.58931 -11.8651 65.6257 -19.1186 -11.9421 36.581 -0.431134 18.34 2.67029 -2.52431e-10 -2.33917e-09 -2.28224e-09 -4.65628e-10 -4.02014e-09 -3.93995e-09 -2.52426e-10 -2.33917e-09 -2.28224e-09 7.73091 5.47488 0.417314 -2.52431e-10 -2.33917e-09 -2.28224e-09 2.90554 0.965183 0.102902 -2.52418e-10 -2.33917e-09 -2.28223e-09 10.2786 0.731801 0.0259123 -2.52432e-10 -2.33917e-09 -2.28222e-09 2.22167 -0.733487 -0.20892 -5.24993e-14 -3.08514e-13 1.58928e-13 -63.1943 35.596 -13.8719 24.7208 -20.5091 -51.9775 0.0150414 3.49927 -0.492408 3.79126e-09 -3.77498e-09 -1.56111e-09 6.55212e-09 -6.52901e-09 -2.70278e-09 3.79126e-09 -3.77498e-09 -1.5611e-09 -7.73091 5.47488 -0.417314 3.79126e-09 -3.77498e-09 -1.56111e-09 -2.90554 0.965183 -0.102902 3.79125e-09 -3.77498e-09 -1.5611e-09 -10.2786 0.731801 -0.0259123 3.79126e-09 -3.77499e-09 -1.56111e-09 -2.22167 -0.733487 0.20892 -2.03217e-16 0.0 -3.88251e-19 33.1153 -16.6983 9.03814 0.0458202 20.9916 0.808594 -9.15657 -28.4677 -25.8387 2.03217e-16 0.0 3.88251e-19 12.307 -40.2135 -4.72148 0.403882 51.0693 -2.34445 2.34233 -7.18768 17.7305
-32.4439 83.2844 -27.1795 -149.145 69.2706 -142.505 17.4861 -2.47972 4.17255 7.16695 -13.8256 2.3539 -6.43355 4.2118 -8.26726 0.169362 18.8907 -12.1051 -0.0 0.0 0.0 -0.0 0.0 0.0 1.90367e-14 -2.66076e-13 2.3077e-13 -2.59914 -11.1546 65.5559 -19.089 -11.9065 36.5148 -0.436414 18.3753 2.67675 5.35147e-10 -1.89714e-09 -1.19141e-09 9.10124e-10 -3.27189e-09 -2.06764e-09 5.35152e-10 -1.89714e-09 -1.19141e-09 7.73091 5.47488 0.417314 5.35145e-10 -1.89714e-09 -1.19141e-09 2.90554 0.965183 0.102902 5.35161e-10 -1.89714e-09 -1.1914e-09 10.2786 0.731801 0.0259123 5.35146e-10 -1.89714e-09 -1.19139e-09 2.22167 -0.733487 -0.20892 1.90104e-14 -2.66071e-13 2.30622e-13 -65.3239 35.3188 -11.3786 24.4002 -19.872 -50.8149 0.01277 3.19594 -0.449649 2.36194e-09 -2.06038e-09 -1.13816e-09 4.08132e-09 -3.56308e-09 -1.96941e-09 2.36194e-09 -2.06038e-09 -1.13815e-09 -7.73091 5.47488 -0.417314 2.36194e-09 -2.06038e-09 -1.13816e-09 -2.90554 0.965183 -0.102902 2.36193e-09 -2.06038e-09 -1.13815e-09 -10.2786 0.731801 -0.0259123 2.36194e-09 -2.06039e-09 -1.13816e-09 -2.22167 -0.733487 0.20892 -2.03217e-16 0.0 -3.88251e-19 33.3569 -15.1246 9.87207 0.0615237 20.0427 0.885885 -9.27143 -28.1526 -26.2094 2.03217e-16 0.0 3.88251e-19 11.4406 -40.7795 -5.42579 0.259283 46.0552 -2.22356 2.6239 -8.91492 17.538
